0
SECTION
2
HEADER
9
$INSUNITS
70
4
9
$ACADVER
1
AC1014
9
$HANDSEED
5
FFFF
0
ENDSEC
0
SECTION
2
TABLES
0
TABLE
2
VPORT
5
8
100
AcDbSymbolTable
0
ENDTAB
0
TABLE
2
LTYPE
5
5
100
AcDbSymbolTable
0
LTYPE
5
14
100
AcDbSymbolTableRecord
100
AcDbLinetypeTableRecord
2
BYBLOCK
70
0
0
LTYPE
5
15
100
AcDbSymbolTableRecord
100
AcDbLinetypeTableRecord
2
BYLAYER
70
0
0
ENDTAB
0
TABLE
2
LAYER
5
2
100
AcDbSymbolTable
70
2
0
LAYER
5
50
100
AcDbSymbolTableRecord
100
AcDbLayerTableRecord
2
0
70
0
6
CONTINUOUS
0
ENDTAB
0
TABLE
2
STYLE
5
3
100
AcDbSymbolTable
70
1
0
STYLE
5
11
100
AcDbSymbolTableRecord
100
AcDbTextStyleTableRecord
2
STANDARD
70
0
0
ENDTAB
0
TABLE
2
VIEW
5
6
100
AcDbSymbolTable
70
0
0
ENDTAB
0
TABLE
2
UCS
5
7
100
AcDbSymbolTable
70
0
0
ENDTAB
0
TABLE
2
APPID
5
9
100
AcDbSymbolTable
70
2
0
APPID
5
12
100
AcDbSymbolTableRecord
100
AcDbRegAppTableRecord
2
ACAD
70
0
0
ENDTAB
0
TABLE
2
DIMSTYLE
5
A
100
AcDbSymbolTable
70
1
0
ENDTAB
0
TABLE
2
BLOCK_RECORD
5
1
100
AcDbSymbolTable
70
1
0
BLOCK_RECORD
5
1F
100
AcDbSymbolTableRecord
100
AcDbBlockTableRecord
2
*MODEL_SPACE
0
BLOCK_RECORD
5
1B
100
AcDbSymbolTableRecord
100
AcDbBlockTableRecord
2
*PAPER_SPACE
0
ENDTAB
0
ENDSEC
0
SECTION
2
BLOCKS
0
BLOCK
5
20
100
AcDbEntity
100
AcDbBlockBegin
2
*MODEL_SPACE
0
ENDBLK
5
21
100
AcDbEntity
100
AcDbBlockEnd
0
BLOCK
5
1C
100
AcDbEntity
100
AcDbBlockBegin
2
*PAPER_SPACE
0
ENDBLK
5
1D
100
AcDbEntity
100
AcDbBlockEnd
0
ENDSEC
0
SECTION
2
ENTITIES
0
CIRCLE
5
100
100
AcDbEntity
8
0
100
AcDbCircle
10
118.23774861921748
20
3.2418593181070738
30
0
40
1.7500000000000002
210
0
220
0
230
1
0
CIRCLE
5
101
100
AcDbEntity
8
0
100
AcDbCircle
10
8.2300000000000182
20
12.77999999999999
30
0
40
1.7500000000000002
210
0
220
0
230
1
0
CIRCLE
5
102
100
AcDbEntity
8
0
100
AcDbCircle
10
311.00875000000002
20
12.779999999999971
30
0
40
1.7500000000000002
210
0
220
0
230
1
0
CIRCLE
5
103
100
AcDbEntity
8
0
100
AcDbCircle
10
8.2300000000000182
20
-91.119999999999962
30
0
40
1.7500000000000044
210
0
220
0
230
1
0
CIRCLE
5
104
100
AcDbEntity
8
0
100
AcDbCircle
10
311.00875000000019
20
-91.119999999999962
30
0
40
1.7500000000000002
210
0
220
0
230
1
0
CIRCLE
5
105
100
AcDbEntity
8
0
100
AcDbCircle
10
199.18304833616745
20
4.9223239642487364
30
0
40
1.7500000000000002
210
0
220
0
230
1
0
CIRCLE
5
106
100
AcDbEntity
8
0
100
AcDbCircle
10
111.36651758024931
20
-101.12531899113708
30
0
40
1.7499999999999569
210
0
220
0
230
1
0
CIRCLE
5
107
100
AcDbEntity
8
0
100
AcDbCircle
10
207.37348241975059
20
-101.12531899113708
30
0
40
1.7500000000000002
210
0
220
0
230
1
0
LWPOLYLINE
5
108
100
AcDbEntity
8
0
100
AcDbPolyline
90
77
70
1
43
0.0
10
-4.3657864376267783
20
9.7799999999999851
10
3.480000000000012
20
9.7799999999999869
42
0.33333333333333276
10
4.440000000000027
20
10.499999999999991
10
5.3500000000000227
20
13.619999999999994
42
-0.74999999999999523
10
11.11000000000004
20
13.619999999999992
10
12.020000000000032
20
10.49999999999998
42
0.33333333333334253
10
12.980000000000018
20
9.7799999999999851
10
72.943907837680115
20
9.779999999999978
42
-0.052407779283084363
10
73.15181952849791
20
9.7581476007337837
10
112.9678124432786
20
1.2949970472900327
42
0.33333333333335413
10
114.0565305573719
20
1.7996680966333243
10
115.59532934939102
20
4.6622889722786347
42
-0.749999999999997
10
121.2294595296178
20
3.4647176331683438
10
121.47088937093413
20
0.22369748023470384
42
0.33333333333332055
10
122.26021465024982
20
-0.68016401547869165
10
154.54950450079872
20
-7.5434644448781043
42
0.10510423526569822
10
154.96532788243431
20
-7.5434644448780723
10
195.16058230513522
20
1.0003006306629727
42
0.33333333333331333
10
195.94990758445078
20
1.9041621263763753
10
196.19133742576719
20
5.1451822793100011
42
-0.75000000000000988
10
201.82546760599394
20
6.3427536184203017
10
203.36426639801303
20
3.4801327427749866
42
0.3333333333333745
10
204.45298451210633
20
2.9754616934317064
10
236.46582031028686
20
9.7799999999999638
10
306.25875000000002
20
9.7799999999999425
42
0.33333333333333293
10
307.21875000000011
20
10.499999999999961
10
308.12874999999991
20
13.620000000000054
42
-0.74999999999996825
10
313.88875000000013
20
13.620000000000019
10
314.79875000000015
20
10.499999999999947
42
0.33333333333336806
10
315.75875000000002
20
9.7799999999999638
10
323.60453643762685
20
9.7799999999999354
42
-0.1989123673797307
10
324.31164321881334
20
9.4871067811865544
10
328.72585678118668
20
5.0728932188133253
42
-0.19891236737967888
10
329.01875000000007
20
4.3657864376267241
10
329.01875000000007
20
-82.753786437626999
42
-0.19891236737965293
10
328.72585678118662
20
-83.460893218813538
10
324.31164321881351
20
-87.875106781186574
42
-0.19891236737970486
10
323.6045364376269
20
-88.168000000000021
10
315.74475000000012
20
-88.167999999999978
42
0.33333333333332898
10
314.78474999999997
20
-88.888000000000019
10
313.8887500000003
20
-91.960000000000036
42
-0.74999999999999478
10
308.12875000000008
20
-91.959999999999994
10
307.23275000000007
20
-88.888000000000048
42
0.33333333333333648
10
306.27274999999997
20
-88.168000000000021
10
254.42919362566852
20
-88.168000000000035
42
0.052407779283050911
10
253.3896351715797
20
-88.277261996331021
10
211.39594845078304
20
-97.203295657551394
42
0.33333333333332987
10
210.60662317146736
20
-98.107157153264865
10
210.36519333015096
20
-101.34817730619842
42
-0.75000000000001188
10
204.73106314992421
20
-102.54574864530872
10
203.19226435790515
20
-99.683127769663415
42
0.33333333333335213
10
202.10354624381182
20
-99.178456720320142
10
160.40955845408885
20
-108.0407874072153
42
-0.10510423526567458
10
158.3304415459113
20
-108.04078740721529
10
116.6364537561882
20
-99.178456720320099
42
0.33333333333333165
10
115.54773564209491
20
-99.683127769663358
10
114.00893685007568
20
-102.54574864530872
42
-0.74999999999997669
10
108.37480666984901
20
-101.34817730619842
10
108.13337682853265
20
-98.107157153264808
42
0.33333333333332588
10
107.34405154921701
20
-97.203295657551422
10
65.124542583165592
20
-88.229261996331005
42
0.052407779283047434
10
64.08498412907683
20
-88.120000000000033
10
12.979999999999992
20
-88.120000000000033
42
0.33333333333333437
10
12.02
20
-88.840000000000032
10
11.110000000000046
20
-91.95999999999998
42
-0.75000000000000155
10
5.3500000000000227
20
-91.959999999999965
10
4.4400000000000386
20
-88.840000000000032
42
0.33333333333335569
10
3.4800000000000386
20
-88.120000000000033
10
-3.529999999999951
20
-88.120000000000033
42
-0.4142135623730881
10
-4.5299999999999514
20
-87.120000000000033
10
-4.5299999999999381
20
-74.870000000000019
42
0.41421356237308038
10
-5.5299999999999514
20
-73.870000000000019
10
-8.7799999999999816
20
-73.870000000000019
42
-0.4142135623730866
10
-9.7799999999999851
20
-72.870000000000033
10
-9.7799999999999834
20
4.3657864376268831
42
-0.19891236737962498
10
-9.4871067811865277
20
5.0728932188134346
10
-5.0728932188133244
20
9.4871067811865437
42
-0.19891236737963802
0
LWPOLYLINE
5
109
100
AcDbEntity
8
0
100
AcDbPolyline
90
8
70
1
43
0.0
10
153.7633403084908
20
-11.089368243967288
10
139.58020009785056
20
-8.074648727109782
42
0.41421356237312656
10
138.98717045207479
20
-8.4597666820678086
10
136.53381250042526
20
-20.001908370726703
42
0.41421356237306034
10
136.9189304553833
20
-20.594938016502478
10
151.10207066602345
20
-23.60965753336
42
0.4142135623731461
10
151.69510031179931
20
-23.224539578401988
10
154.14845826344882
20
-11.682397889743061
42
0.41421356237305706
0
LWPOLYLINE
5
110
100
AcDbEntity
8
0
100
AcDbPolyline
90
8
70
1
43
0.0
10
204.41232327615882
20
-13.323104158245425
42
0.41421356237305496
10
205.00535292193462
20
-13.708222113203448
10
219.18849313257482
20
-10.693502596345947
42
0.41421356237312679
10
219.57361108753298
20
-10.100472950570143
10
217.1202531358833
20
1.4416687380887616
42
0.414213562373138
10
216.52722349010759
20
1.8267866930467582
10
202.34408327946736
20
-1.1879328238107514
42
0.41421356237312085
10
201.95896532450931
20
-1.78096246958652
0
LWPOLYLINE
5
111
100
AcDbEntity
8
0
100
AcDbPolyline
90
8
70
1
43
0.0
10
137.82207066602348
20
-40.259657533360013
42
0.41421356237316337
10
138.41510031179919
20
-39.874539578401979
10
140.86845826344882
20
-28.332397889743071
42
0.41421356237304197
10
140.48334030849077
20
-27.739368243967295
10
126.30020009785058
20
-24.724648727109795
42
0.41421356237309198
10
125.70717045207476
20
-25.109766682067818
10
123.25381250042523
20
-36.651908370726716
42
0.41421356237301743
10
123.63893045538322
20
-37.244938016502488
0
LWPOLYLINE
5
112
100
AcDbEntity
8
0
100
AcDbPolyline
90
8
70
1
43
0.0
10
232.46220492655385
20
-27.342784886267602
42
0.41421356237307921
10
232.84732288151193
20
-26.749755240491805
10
230.39396492986228
20
-15.207613551832893
42
0.41421356237305268
10
229.80093528408645
20
-14.822495596874873
10
215.6177950734463
20
-17.837215113732409
42
0.41421356237307377
10
215.23267711848834
20
-18.430244759508177
10
217.68603507013782
20
-29.972386448167079
42
0.41421356237304835
10
218.27906471591362
20
-30.357504403125091
0
LWPOLYLINE
5
113
100
AcDbEntity
8
0
100
AcDbPolyline
90
8
70
1
43
0.0
10
205.60408327946732
20
-39.44793282381076
42
0.4142135623731964
10
205.21896532450921
20
-40.040962469586532
10
207.67232327615886
20
-51.58310415824544
42
0.41421356237309692
10
208.26535292193455
20
-51.96822211320341
10
222.44849313257481
20
-48.953502596345963
42
0.41421356237310636
10
222.83361108753286
20
-48.360472950570141
10
220.38025313588327
20
-36.818331261911247
42
0.41421356237308177
10
219.78722349010741
20
-36.433213306953228
0
LWPOLYLINE
5
114
100
AcDbEntity
8
0
100
AcDbPolyline
90
8
70
1
43
0.0
10
132.46835887204443
20
-19.64893982328169
42
0.41421356237308243
10
133.06138851782021
20
-19.263821868323667
10
135.5147464694698
20
-7.7216801796647498
42
0.41421356237307111
10
135.12962851451175
20
-7.128650533888969
10
120.94648830387158
20
-4.1139310170314758
42
0.41421356237310275
10
120.35345865809576
20
-4.4990489719894988
10
117.90010070644621
20
-16.041190660648393
42
0.41421356237312185
10
118.28521866140423
20
-16.634220306424155
0
LWPOLYLINE
5
115
100
AcDbEntity
8
0
100
AcDbPolyline
90
8
70
1
43
0.0
10
214.21361108753288
20
-30.71047295057015
10
211.76025313588329
20
-19.168331261911238
42
0.41421356237312934
10
211.16722349010757
20
-18.783213306953208
10
196.98408327946731
20
-21.797932823810747
42
0.41421356237306817
10
196.59896532450932
20
-22.390962469586498
10
199.05232327615889
20
-33.933104158245428
42
0.41421356237311652
10
199.64535292193463
20
-34.31822211320339
10
213.82849313257483
20
-31.30350259634595
42
0.41421356237310214
0
LWPOLYLINE
5
116
100
AcDbEntity
8
0
100
AcDbPolyline
90
8
70
1
43
0.0
10
116.88103467549084
20
-3.7609624695864574
42
0.41421356237310464
10
116.49591672053282
20
-3.1679328238106979
10
102.31277650989261
20
-0.15321330695318375
42
0.4142135623730594
10
101.7197468641168
20
-0.53833126191120517
10
99.266388912467249
20
-12.080472950570107
42
0.41421356237309631
10
99.651506867425297
20
-12.673502596345866
10
113.8346470780655
20
-15.688222113203398
42
0.41421356237311541
10
114.42767672384123
20
-15.303104158245375
0
LWPOLYLINE
5
117
100
AcDbEntity
8
0
100
AcDbPolyline
90
8
70
1
43
0.0
10
223.04603507013783
20
-9.3623864481670775
42
0.41421356237311768
10
223.63906471591361
20
-9.747504403125042
10
237.82220492655384
20
-6.7327848862676021
42
0.41421356237304952
10
238.20732288151186
20
-6.1397552404918088
10
235.75396492986229
20
5.4023864481671069
42
0.41421356237306373
10
235.16093528408646
20
5.7875044031251299
10
220.97779507344626
20
2.7727848862675923
42
0.41421356237310042
10
220.5926771184883
20
2.1797552404918061
0
LWPOLYLINE
5
118
100
AcDbEntity
8
0
100
AcDbPolyline
90
8
70
1
43
0.0
10
95.200935284086441
20
-11.727504403125089
42
0.41421356237311485
10
95.793964929862184
20
-11.342386448167062
10
98.24732288151182
20
0.19975524049185089
42
0.41421356237306384
10
97.862204926553758
20
0.79278488626759847
10
83.679064715913597
20
3.8075044031251259
42
0.41421356237311757
10
83.086035070137797
20
3.4223864481671029
10
80.632677118488218
20
-8.119755240491795
42
0.41421356237307461
10
81.017795073446294
20
-8.7127848862675794
0
LWPOLYLINE
5
119
100
AcDbEntity
8
0
100
AcDbPolyline
90
8
70
1
43
0.0
10
193.12654134190439
20
-23.129048971989569
42
0.41421356237307577
10
192.53351169612858
20
-22.743931017031574
10
178.35037148548835
20
-25.758650533889078
42
0.41421356237317464
10
177.96525353053033
20
-26.351680179664854
10
180.41861148217987
20
-37.893821868323762
42
0.41421356237306395
10
181.01164112795567
20
-38.27893982328176
10
195.1947813385959
20
-35.264220306424278
42
0.41421356237310269
10
195.57989929355392
20
-34.67119066064847
0
LWPOLYLINE
5
120
100
AcDbEntity
8
0
100
AcDbPolyline
90
8
70
1
43
0.0
10
201.74654134190428
20
-40.779048971989567
42
0.41421356237309614
10
201.15351169612839
20
-40.393931017031541
10
186.97037148548827
20
-43.408650533889094
42
0.41421356237298496
10
186.58525353053025
20
-44.001680179664852
10
189.03861148217976
20
-55.543821868323761
42
0.41421356237308488
10
189.63164112795562
20
-55.928939823281745
10
203.81478133859574
20
-52.914220306424298
42
0.41421356237305723
10
204.19989929355381
20
-52.321190660648476
0
LWPOLYLINE
5
121
100
AcDbEntity
8
0
100
AcDbPolyline
90
8
70
1
43
0.0
10
179.85282954792527
20
-6.4797666820679112
42
0.41421356237308693
10
179.25979990214952
20
-6.0946487271099148
10
165.07665969150932
20
-9.109368243967424
42
0.41421356237310053
10
164.69154173655124
20
-9.7023978897431977
10
167.14489968820078
20
-21.244539578402094
42
0.41421356237304163
10
167.73792933397658
20
-21.62965753336011
10
181.92106954461681
20
-18.61493801650262
42
0.41421356237307982
10
182.30618749957489
20
-18.02190837072682
0
LWPOLYLINE
5
122
100
AcDbEntity
8
0
100
AcDbPolyline
90
8
70
1
43
0.0
10
224.23779507344622
20
-35.487215113732404
42
0.4142135623731486
10
223.85267711848826
20
-36.080244759508169
10
226.30603507013785
20
-47.622386448167106
42
0.4142135623730685
10
226.8990647159136
20
-48.007504403125068
10
241.0822049265538
20
-44.992784886267607
42
0.41421356237310014
10
241.46732288151185
20
-44.399755240491807
10
239.01396492986225
20
-32.857613551832898
42
0.41421356237304457
10
238.42093528408645
20
-32.47249559687485
0
LWPOLYLINE
5
123
100
AcDbEntity
8
0
100
AcDbPolyline
90
8
70
1
43
0.0
10
122.23474646946981
20
-24.371680179664779
42
0.41421356237307871
10
121.84962851451176
20
-23.778650533889021
10
107.66648830387156
20
-20.763931017031503
42
0.41421356237308177
10
107.0734586580958
20
-21.149048971989526
10
104.62010070644622
20
-32.691190660648424
42
0.41421356237311902
10
105.00521866140424
20
-33.284220306424174
10
119.18835887204445
20
-36.298939823281714
42
0.41421356237309703
10
119.7813885178202
20
-35.913821868323701
0
LWPOLYLINE
5
124
100
AcDbEntity
8
0
100
AcDbPolyline
90
8
70
1
43
0.0
10
90.63220492655374
20
-56.097215113732389
10
76.449064715913551
20
-53.082495596874892
42
0.41421356237312662
10
75.85603507013775
20
-53.467613551832898
10
73.402677118488185
20
-65.009755240491799
42
0.41421356237307871
10
73.787795073446205
20
-65.6027848862676
10
87.970935284086437
20
-68.61750440312511
42
0.4142135623731808
10
88.563964929862209
20
-68.232386448167091
10
91.01732288151176
20
-56.690244759508161
42
0.41421356237307361
0
LWPOLYLINE
5
125
100
AcDbEntity
8
0
100
AcDbPolyline
90
8
70
1
43
0.0
10
185.7786114821798
20
-17.283821868323752
42
0.4142135623730821
10
186.37164112795563
20
-17.668939823281775
10
200.5547813385958
20
-14.654220306424275
42
0.41421356237308105
10
200.93989929355388
20
-14.061190660648471
10
198.48654134190426
20
-2.5190489719895655
42
0.41421356237315454
10
197.89351169612846
20
-2.1339310170315691
10
183.71037148548828
20
-5.1486505338890796
42
0.41421356237315271
10
183.32525353053026
20
-5.7416801796648507
0
LWPOLYLINE
5
126
100
AcDbEntity
8
0
100
AcDbPolyline
90
8
70
1
43
0.0
10
85.282204926553703
20
-35.487215113732404
10
71.099064715913528
20
-32.472495596874893
42
0.41421356237309248
10
70.506035070137784
20
-32.85761355183292
10
68.052677118488177
20
-44.399755240491807
42
0.41421356237304707
10
68.43779507344621
20
-44.9927848862676
10
82.620935284086414
20
-48.007504403125111
42
0.41421356237312557
10
83.213964929862158
20
-47.622386448167106
10
85.667322881511737
20
-36.080244759508169
42
0.41421356237306689
0
LWPOLYLINE
5
127
100
AcDbEntity
8
0
100
AcDbPolyline
90
8
70
1
43
0.0
10
103.60103467549082
20
-20.410962469586448
42
0.41421356237305723
10
103.2159167205328
20
-19.817932823810679
10
89.032776509892585
20
-16.803213306953175
42
0.41421356237312801
10
88.439746864116813
20
-17.188331261911195
10
85.986388912467234
20
-28.730472950570096
42
0.41421356237304197
10
86.371506867425296
20
-29.323502596345872
10
100.5546470780655
20
-32.338222113203386
42
0.41421356237312978
10
101.1476767238413
20
-31.953104158245374
0
LWPOLYLINE
5
128
100
AcDbEntity
8
0
100
AcDbPolyline
90
8
70
1
43
0.0
10
84.967322881511805
20
-16.450244759508156
42
0.41421356237311774
10
84.582204926553786
20
-15.857215113732405
10
70.399064715913582
20
-12.842495596874885
42
0.41421356237309176
10
69.80603507013781
20
-13.227613551832906
10
67.352677118488231
20
-24.769755240491804
42
0.41421356237307921
10
67.737795073446279
20
-25.362784886267583
10
81.920935284086482
20
-28.377504403125098
42
0.41421356237311852
10
82.513964929862226
20
-27.992386448167075
0
LWPOLYLINE
5
129
100
AcDbEntity
8
0
100
AcDbPolyline
90
8
70
1
43
0.0
10
174.49282954792525
20
-27.089766682067896
42
0.41421356237309198
10
173.89979990214954
20
-26.704648727109927
10
159.71665969150931
20
-29.719368243967409
42
0.41421356237307266
10
159.33154173655134
20
-30.312397889743185
10
161.78489968820085
20
-41.854539578402083
42
0.41421356237301543
10
162.37792933397662
20
-42.239657533360088
10
176.56106954461688
20
-39.224938016502612
42
0.41421356237310375
10
176.94618749957493
20
-38.631908370726798
0
LWPOLYLINE
5
130
100
AcDbEntity
8
0
100
AcDbPolyline
90
8
70
1
43
0.0
10
85.822204926553809
20
-76.087215113732441
10
71.639064715913577
20
-73.072495596874901
42
0.41421356237308998
10
71.046035070137791
20
-73.457613551832935
10
68.592677118488211
20
-84.999755240491822
42
0.41421356237305945
10
68.977795073446259
20
-85.59278488626758
10
83.160935284086463
20
-88.607504403125134
42
0.4142135623731481
10
83.753964929862207
20
-88.2223864481671
10
86.207322881511828
20
-76.680244759508184
42
0.4142135623730685
0
LWPOLYLINE
5
131
100
AcDbEntity
8
0
100
AcDbPolyline
90
8
70
1
43
0.0
10
215.02025313588331
20
-57.428331261911225
42
0.41421356237310014
10
214.42722349010754
20
-57.043213306953213
10
200.2440832794673
20
-60.057932823810738
42
0.41421356237301327
10
199.85896532450931
20
-60.650962469586531
10
202.31232327615885
20
-72.193104158245404
42
0.41421356237310009
10
202.90535292193465
20
-72.578222113203395
10
217.08849313257488
20
-69.563502596345927
42
0.4142135623731768
10
217.47361108753296
20
-68.970472950570141
0
LWPOLYLINE
5
132
100
AcDbEntity
8
0
100
AcDbPolyline
90
8
70
1
43
0.0
10
138.52207066602344
20
-59.889657533360001
42
0.41421356237316048
10
139.11510031179921
20
-59.504539578401975
10
141.5684582634488
20
-47.962397889743052
42
0.41421356237309503
10
141.18334030849076
20
-47.369368243967294
10
127.00020009785057
20
-44.35464872710979
42
0.41421356237307982
10
126.40717045207479
20
-44.739766682067817
10
123.9538125004252
20
-56.281908370726718
42
0.41421356237305723
10
124.33893045538326
20
-56.874938016502483
0
LWPOLYLINE
5
133
100
AcDbEntity
8
0
100
AcDbPolyline
90
8
70
1
43
0.0
10
233.65396492986224
20
-53.467613551832898
42
0.41421356237307466
10
233.0609352840865
20
-53.082495596874857
10
218.87779507344624
20
-56.09721511373241
42
0.41421356237304091
10
218.49267711848825
20
-56.690244759508197
10
220.94603507013775
20
-68.232386448167091
42
0.41421356237312046
10
221.53906471591358
20
-68.617504403125068
10
235.72220492655376
20
-65.602784886267614
42
0.41421356237308082
10
236.10732288151183
20
-65.009755240491799
0
LWPOLYLINE
5
134
100
AcDbEntity
8
0
100
AcDbPolyline
90
8
70
1
43
0.0
10
119.88835887204445
20
-55.928939823281709
42
0.414213562373139
10
120.48138851782021
20
-55.543821868323697
10
122.93474646946981
20
-44.001680179664753
42
0.4142135623731012
10
122.54962851451175
20
-43.408650533888995
10
108.36648830387155
20
-40.393931017031491
42
0.41421356237306961
10
107.77345865809579
20
-40.779048971989525
10
105.32010070644623
20
-52.321190660648405
42
0.41421356237310014
10
105.70521866140425
20
-52.914220306424191
0
LWPOLYLINE
5
135
100
AcDbEntity
8
0
100
AcDbPolyline
90
8
70
1
43
0.0
10
211.74093037034893
20
-87.601738552912124
42
0.41421356237320117
10
211.35581241539086
20
-88.194768198687953
10
212.23112063373367
20
-92.312769597777233
42
0.41421356237310308
10
212.82415027950941
20
-92.697887552735239
10
214.45765677273488
20
-92.350675029069592
42
0.41421356237304202
10
214.84277472769293
20
-91.757645383293834
10
213.96746650935017
20
-87.63964398420454
42
0.41421356237311541
10
213.37443686357432
20
-87.254526029246463
0
LWPOLYLINE
5
136
100
AcDbEntity
8
0
100
AcDbPolyline
90
8
70
1
43
0.0
10
226.3490647159135
20
-88.60750440312502
10
240.53220492655373
20
-85.592784886267566
42
0.41421356237312773
10
240.91732288151178
20
-84.999755240491766
10
238.46396492986219
20
-73.45761355183285
42
0.41421356237310014
10
237.87093528408644
20
-73.07249559687483
10
223.68779507344615
20
-76.087215113732341
42
0.41421356237302676
10
223.30267711848819
20
-76.680244759508142
10
225.7560350701377
20
-88.222386448167057
42
0.41421356237311974
0
LWPOLYLINE
5
137
100
AcDbEntity
8
0
100
AcDbPolyline
90
8
70
1
43
0.0
10
89.732776509892588
20
-36.433213306953185
42
0.4142135623731118
10
89.139746864116802
20
-36.818331261911212
10
86.686388912467208
20
-48.360472950570106
42
0.41421356237308998
10
87.071506867425256
20
-48.953502596345906
10
101.25464707806545
20
-51.96822211320341
42
0.41421356237310525
10
101.8476767238412
20
-51.583104158245384
10
104.30103467549081
20
-40.040962469586454
42
0.41421356237310325
10
103.91591672053279
20
-39.447932823810696
0
LWPOLYLINE
5
138
100
AcDbEntity
8
0
100
AcDbPolyline
90
8
70
1
43
0.0
10
62.910000000000039
20
-27.590000000000003
42
0.41421356237310025
10
63.410000000000075
20
-27.089999999999979
10
63.410000000000018
20
-15.289999999999981
42
0.41421356237310542
10
62.910000000000004
20
-14.789999999999983
10
48.410000000000011
20
-14.789999999999992
42
0.41421356237309503
10
47.909999999999982
20
-15.289999999999981
10
47.909999999999997
20
-27.089999999999979
42
0.41421356237305079
10
48.410000000000011
20
-27.58999999999995
0
LWPOLYLINE
5
139
100
AcDbEntity
8
0
100
AcDbPolyline
90
8
70
1
43
0.0
10
15.924999999999995
20
-63.165000000000013
42
0.41421356237311974
10
15.425000000000001
20
-63.66500000000002
10
15.425000000000004
20
-67.875000000000014
42
0.4142135623730937
10
15.924999999999976
20
-68.375
10
17.594999999999992
20
-68.375000000000028
42
0.41421356237311197
10
18.094999999999992
20
-67.875000000000014
10
18.094999999999981
20
-63.66500000000002
42
0.41421356237307161
10
17.594999999999992
20
-63.165000000000042
0
LWPOLYLINE
5
140
100
AcDbEntity
8
0
100
AcDbPolyline
90
8
70
1
43
0.0
10
185.34603507013759
20
-95.28238644816696
42
0.41421356237307466
10
185.93906471591339
20
-95.667504403124966
10
200.12220492655362
20
-92.652784886267497
42
0.41421356237310308
10
200.50732288151167
20
-92.059755240491711
10
198.05396492986202
20
-80.517613551832795
42
0.41421356237300344
10
197.46093528408633
20
-80.132495596874804
10
183.27779507344604
20
-83.147215113732301
42
0.41421356237311757
10
182.892677118488
20
-83.740244759508073
0
LWPOLYLINE
5
141
100
AcDbEntity
8
0
100
AcDbPolyline
90
8
70
1
43
0.0
10
172.72009864942348
20
-101.22226687626345
10
174.35360514264889
20
-100.87505435259773
42
0.41421356237311757
10
174.73872309760694
20
-100.28202470682196
10
173.86341487926416
20
-96.164023307732634
42
0.4142135623731299
10
173.2703852334883
20
-95.778905352774643
10
171.63687874026292
20
-96.126117876440276
42
0.41421356237310525
10
171.25176078530487
20
-96.71914752221609
10
172.12706900364762
20
-100.83714892130537
42
0.41421356237311541
0
LWPOLYLINE
5
142
100
AcDbEntity
8
0
100
AcDbPolyline
90
8
70
1
43
0.0
10
30.870000000000033
20
-71.940000000000026
10
16.370000000000026
20
-71.940000000000026
42
0.41421356237309243
10
15.870000000000006
20
-72.440000000000026
10
15.870000000000019
20
-84.239999999999981
42
0.41421356237307683
10
16.370000000000037
20
-84.739999999999952
10
30.870000000000051
20
-84.740000000000023
42
0.41421356237311585
10
31.370000000000093
20
-84.239999999999981
10
31.370000000000047
20
-72.440000000000026
42
0.41421356237310802
0
LINE
5
143
100
AcDbEntity
8
0
100
AcDbLine
10
32.65000000000007
20
-46.640000000000022
30
0
11
18.150000000000016
21
-46.639999999999972
31
0
0
LWPOLYLINE
5
144
100
AcDbEntity
8
0
100
AcDbPolyline
90
8
70
1
43
0.0
10
179.82106954461685
20
-77.48493801650261
42
0.41421356237313284
10
180.2061874995749
20
-76.89190837072681
10
177.7528295479253
20
-65.349766682067923
42
0.41421356237309503
10
177.15979990214953
20
-64.964648727109903
10
162.9766596915093
20
-67.979368243967414
42
0.41421356237318374
10
162.59154173655131
20
-68.5723978897432
10
165.04489968820084
20
-80.114539578402088
42
0.41421356237299911
10
165.63792933397664
20
-80.499657533360079
0
LWPOLYLINE
5
145
100
AcDbEntity
8
0
100
AcDbPolyline
90
8
70
1
43
0.0
10
170.99792933397654
20
-59.889657533360122
10
185.18106954461683
20
-56.874938016502625
42
0.41421356237310736
10
185.56618749957482
20
-56.281908370726832
10
183.11282954792529
20
-44.739766682067916
42
0.41421356237311829
10
182.51979990214946
20
-44.354648727109918
10
168.33665969150928
20
-47.369368243967429
42
0.41421356237315426
10
167.95154173655123
20
-47.962397889743201
10
170.40489968820083
20
-59.504539578402103
42
0.41421356237307871
0
LWPOLYLINE
5
146
100
AcDbEntity
8
0
100
AcDbPolyline
90
8
70
1
43
0.0
10
15.48000000000008
20
-6.4000000000000057
42
0.41421356237309243
10
15.980000000000096
20
-5.8999999999999808
10
15.98000000000007
20
5.9000000000000163
42
0.4142135623731022
10
15.480000000000055
20
6.4000000000000243
10
0.98000000000005194
20
6.4000000000000057
42
0.41421356237309265
10
0.48000000000002718
20
5.9000000000000163
10
0.48000000000004484
20
-5.8999999999999808
42
0.41421356237307877
10
0.98000000000006082
20
-6.3999999999999524
0
LWPOLYLINE
5
147
100
AcDbEntity
8
0
100
AcDbPolyline
90
8
70
1
43
0.0
10
125.23835887204443
20
-76.538939823281709
42
0.41421356237311141
10
125.83138851782024
20
-76.153821868323703
10
128.28474646946978
20
-64.611680179664759
42
0.4142135623730685
10
127.89962851451178
20
-64.018650533889002
10
113.71648830387151
20
-61.003931017031491
42
0.41421356237310919
10
113.12345865809579
20
-61.389048971989538
10
110.67010070644621
20
-72.93119066064844
42
0.41421356237310525
10
111.05521866140423
20
-73.524220306424183
0
LWPOLYLINE
5
148
100
AcDbEntity
8
0
100
AcDbPolyline
90
8
70
1
43
0.0
10
24.600000000000009
20
-14.789999999999992
42
0.41421356237309764
10
24.099999999999987
20
-15.289999999999981
10
24.100000000000001
20
-27.089999999999979
42
0.414213562373069
10
24.600000000000009
20
-27.58999999999995
10
39.100000000000037
20
-27.590000000000003
42
0.41421356237310025
10
39.600000000000072
20
-27.089999999999979
10
39.600000000000016
20
-15.289999999999981
42
0.41421356237311063
10
39.100000000000001
20
-14.789999999999974
0
LWPOLYLINE
5
149
100
AcDbEntity
8
0
100
AcDbPolyline
90
8
70
1
43
0.0
10
313.29000000000008
20
-14.789999999999921
10
298.79000000000013
20
-14.789999999999992
42
0.41421356237322121
10
298.29000000000002
20
-15.289999999999981
10
298.29000000000008
20
-27.089999999999979
42
0.4142135623730534
10
298.79000000000008
20
-27.589999999999932
10
313.29000000000013
20
-27.590000000000003
42
0.41421356237310281
10
313.79000000000013
20
-27.089999999999979
10
313.79000000000013
20
-15.289999999999981
42
0.41421356237307555
0
LWPOLYLINE
5
150
100
AcDbEntity
8
0
100
AcDbPolyline
90
8
70
1
43
0.0
10
95.082776509892554
20
-57.043213306953191
42
0.41421356237310014
10
94.489746864116768
20
-57.428331261911225
10
92.036388912467189
20
-68.970472950570112
42
0.41421356237308377
10
92.421506867425208
20
-69.563502596345899
10
106.60464707806545
20
-72.578222113203395
42
0.41421356237311757
10
107.19767672384116
20
-72.19310415824539
10
109.65103467549078
20
-60.65096246958646
42
0.4142135623730685
10
109.26591672053276
20
-60.057932823810702
0
LWPOLYLINE
5
151
100
AcDbEntity
8
0
100
AcDbPolyline
90
8
70
1
43
0.0
10
299.38
20
-8.5399999999999388
10
313.88000000000005
20
-8.5400000000000098
42
0.41421356237310414
10
314.38000000000005
20
-8.0399999999999849
10
314.38000000000005
20
3.7600000000000122
42
0.4142135623730781
10
313.88000000000005
20
4.2600000000000726
10
299.38000000000005
20
4.2600000000000016
42
0.41421356237310997
10
298.88
20
3.7600000000000122
10
298.88000000000005
20
-8.0399999999999849
42
0.41421356237304302
0
LWPOLYLINE
5
152
100
AcDbEntity
8
0
100
AcDbPolyline
90
8
70
1
43
0.0
10
315.8250000000001
20
-48.825000000000003
42
0.41421356237308982
10
316.32499999999999
20
-49.324999999999982
10
317.995
20
-49.32500000000001
42
0.4142135623730846
10
318.49500000000006
20
-48.825000000000003
10
318.495
20
-44.615000000000009
42
0.41421356237316265
10
317.995
20
-44.11500000000003
10
316.32499999999999
20
-44.115000000000002
42
0.4142135623730846
10
315.82499999999993
20
-44.615000000000009
0
LWPOLYLINE
5
153
100
AcDbEntity
8
0
100
AcDbPolyline
90
8
70
1
43
0.0
10
43.050000000000011
20
4.2600000000000016
42
0.41421356237309537
10
42.54999999999999
20
3.7600000000000122
10
42.550000000000018
20
-8.0399999999999849
42
0.41421356237307227
10
43.050000000000026
20
-8.539999999999953
10
57.55000000000004
20
-8.5400000000000098
42
0.41421356237309503
10
58.050000000000068
20
-8.0399999999999849
10
58.050000000000033
20
3.7600000000000122
42
0.41421356237310802
10
57.54999999999999
20
4.2600000000000238
0
LWPOLYLINE
5
154
100
AcDbEntity
8
0
100
AcDbPolyline
90
8
70
1
43
0.0
10
295.91000000000008
20
-33.840000000000003
42
0.41421356237304302
10
295.41000000000008
20
-34.340000000000011
10
295.41000000000008
20
-46.140000000000008
42
0.41421356237307422
10
295.91000000000008
20
-46.640000000000001
10
310.41000000000008
20
-46.640000000000022
42
0.41421356237316787
10
310.91000000000008
20
-46.140000000000008
10
310.91000000000008
20
-34.340000000000011
42
0.41421356237306384
10
310.41000000000008
20
-33.840000000000039
0
LWPOLYLINE
5
155
100
AcDbEntity
8
0
100
AcDbPolyline
90
8
70
1
43
0.0
10
61.190000000000012
20
5.9000000000000163
10
61.190000000000033
20
-5.8999999999999808
42
0.41421356237305668
10
61.69000000000004
20
-6.3999999999999524
10
76.190000000000083
20
-6.4000000000000057
42
0.41421356237308787
10
76.690000000000097
20
-5.8999999999999808
10
76.690000000000055
20
5.9000000000000163
42
0.41421356237310608
10
76.190000000000026
20
6.4000000000000243
10
61.69000000000004
20
6.4000000000000057
42
0.41421356237309503
0
LWPOLYLINE
5
156
100
AcDbEntity
8
0
100
AcDbPolyline
90
8
70
1
43
0.0
10
53.960000000000015
20
-53.390000000000001
10
53.960000000000008
20
-65.189999999999998
42
0.41421356237305862
10
54.460000000000022
20
-65.689999999999998
10
68.960000000000036
20
-65.690000000000026
42
0.41421356237309503
10
69.460000000000065
20
-65.189999999999998
10
69.460000000000036
20
-53.390000000000001
42
0.41421356237312101
10
68.960000000000008
20
-52.890000000000001
10
54.460000000000022
20
-52.890000000000022
42
0.41421356237311063
0
LWPOLYLINE
5
157
100
AcDbEntity
8
0
100
AcDbPolyline
90
8
70
1
43
0.0
10
38.509999999999991
20
-53.390000000000022
42
0.41421356237309243
10
38.009999999999984
20
-52.890000000000029
10
23.509999999999991
20
-52.890000000000022
42
0.41421356237309764
10
23.009999999999987
20
-53.390000000000022
10
23.010000000000002
20
-65.190000000000026
42
0.41421356237309243
10
23.509999999999991
20
-65.690000000000026
10
38.010000000000012
20
-65.690000000000026
42
0.41421356237310542
10
38.509999999999998
20
-65.190000000000026
0
LWPOLYLINE
5
158
100
AcDbEntity
8
0
100
AcDbPolyline
90
8
70
1
43
0.0
10
255.91999999999999
20
-27.589999999999968
10
270.42000000000007
20
-27.590000000000003
42
0.41421356237310281
10
270.92000000000007
20
-27.089999999999979
10
270.92000000000007
20
-15.289999999999981
42
0.41421356237307555
10
270.42000000000002
20
-14.789999999999937
10
255.9200000000001
20
-14.789999999999992
42
0.41421356237313794
10
255.42000000000004
20
-15.289999999999981
10
255.42000000000002
20
-27.089999999999979
42
0.41421356237306384
0
LWPOLYLINE
5
159
100
AcDbEntity
8
0
100
AcDbPolyline
90
8
70
1
43
0.0
10
-3.1799999999999784
20
-25.449999999999985
10
11.32000000000005
20
-25.450000000000035
42
0.41421356237309503
10
11.820000000000075
20
-24.95000000000001
10
11.820000000000038
20
-13.150000000000013
42
0.41421356237310414
10
11.320000000000016
20
-12.650000000000007
10
-3.1799999999999784
20
-12.650000000000027
42
0.4142135623730947
10
-3.6800000000000028
20
-13.150000000000013
10
-3.6799999999999855
20
-24.95000000000001
42
0.41421356237306739
0
LWPOLYLINE
5
160
100
AcDbEntity
8
0
100
AcDbPolyline
90
8
70
1
43
0.0
10
236.79000000000005
20
-14.229999999999983
10
236.79000000000002
20
-26.02999999999998
42
0.41421356237307422
10
237.28999999999999
20
-26.529999999999951
10
251.79000000000005
20
-26.530000000000005
42
0.41421356237308982
10
252.29000000000011
20
-26.02999999999998
10
252.29000000000011
20
-14.229999999999983
42
0.41421356237307555
10
251.79000000000002
20
-13.729999999999938
10
237.29000000000011
20
-13.729999999999993
42
0.41421356237313794
0
LINE
5
161
100
AcDbEntity
8
0
100
AcDbLine
10
18.150000000000031
20
-33.840000000000003
30
0
11
32.650000000000041
21
-33.839999999999989
31
0
0
LWPOLYLINE
5
162
100
AcDbEntity
8
0
100
AcDbPolyline
90
8
70
1
43
0.0
10
300.79375000000016
20
-53.390000000000001
42
0.41421356237319906
10
300.2937500000001
20
-52.890000000000043
10
285.79375000000016
20
-52.890000000000022
42
0.41421356237299617
10
285.2937500000001
20
-53.390000000000001
10
285.2937500000001
20
-65.189999999999998
42
0.41421356237300661
10
285.79375000000016
20
-65.689999999999998
10
300.2937500000001
20
-65.690000000000026
42
0.41421356237305862
10
300.79375000000022
20
-65.189999999999998
0
LWPOLYLINE
5
163
100
AcDbEntity
8
0
100
AcDbPolyline
90
8
70
1
43
0.0
10
39.000000000000071
20
-8.0399999999999849
10
39.000000000000043
20
3.7600000000000122
42
0.41421356237310969
10
38.500000000000014
20
4.2600000000000176
10
24.000000000000021
20
4.2600000000000016
42
0.4142135623730937
10
23.500000000000007
20
3.7600000000000122
10
23.500000000000011
20
-8.0399999999999849
42
0.41421356237307616
10
24.000000000000021
20
-8.5399999999999547
10
38.50000000000005
20
-8.5400000000000098
42
0.41421356237309503
0
LWPOLYLINE
5
164
100
AcDbEntity
8
0
100
AcDbPolyline
90
8
70
1
43
0.0
10
7.7500000000000391
20
-32.199999999999989
42
0.41421356237311779
10
7.2500000000000142
20
-31.699999999999985
10
-7.2499999999999787
20
-31.699999999999999
42
0.41421356237309503
10
-7.7500000000000036
20
-32.199999999999989
10
-7.7499999999999876
20
-43.999999999999993
42
0.41421356237307422
10
-7.2499999999999787
20
-44.499999999999964
10
7.2500000000000497
20
-44.500000000000021
42
0.4142135623730937
10
7.7500000000000728
20
-43.999999999999993
0
ARC
5
165
100
AcDbEntity
8
0
100
AcDbCircle
10
18.150000000000016
20
-34.340000000000011
30
0
40
0.50000000000000711
210
0
220
-0
230
1
100
AcDbArc
50
89.99999999999838
51
180
0
LWPOLYLINE
5
166
100
AcDbEntity
8
0
100
AcDbPolyline
90
8
70
1
43
0.0
10
181.61037148548829
20
-64.018650533889087
42
0.41421356237318374
10
181.22525353053027
20
-64.611680179664873
10
183.6786114821798
20
-76.15382186832376
42
0.41421356237304308
10
184.2716411279556
20
-76.538939823281794
10
198.45478133859584
20
-73.524220306424297
42
0.4142135623731012
10
198.83989929355386
20
-72.931190660648483
10
196.38654134190429
20
-61.389048971989581
42
0.41421356237303364
10
195.79351169612849
20
-61.00393101703159
0
LWPOLYLINE
5
167
100
AcDbEntity
8
0
100
AcDbPolyline
90
8
70
1
43
0.0
10
144.46510031179926
20
-80.114539578402017
10
146.91845826344885
20
-68.572397889743058
42
0.41421356237309503
10
146.53334030849078
20
-67.979368243967301
10
132.35020009785057
20
-64.96464872710979
42
0.41421356237310014
10
131.7571704520748
20
-65.349766682067823
10
129.30381250042524
20
-76.891908370726696
42
0.41421356237309209
10
129.68893045538326
20
-77.484938016502525
10
143.87207066602346
20
-80.499657533359979
42
0.41421356237307466
0
LWPOLYLINE
5
168
100
AcDbEntity
8
0
100
AcDbPolyline
90
8
70
1
43
0.0
10
260.78000000000003
20
-8.0399999999999849
42
0.41421356237306384
10
261.28000000000003
20
-8.5399999999999476
10
275.78000000000009
20
-8.5400000000000098
42
0.41421356237310414
10
276.28000000000009
20
-8.0399999999999849
10
276.28000000000009
20
3.7600000000000122
42
0.41421356237307583
10
275.78000000000003
20
4.2600000000000726
10
261.28000000000009
20
4.2600000000000016
42
0.4142135623731103
10
260.77999999999997
20
3.7600000000000122
0
LWPOLYLINE
5
169
100
AcDbEntity
8
0
100
AcDbPolyline
90
8
70
1
43
0.0
10
279.46000000000004
20
-33.839999999999925
10
264.96000000000009
20
-33.840000000000003
42
0.41421356237318868
10
264.45999999999998
20
-34.339999999999989
10
264.46000000000004
20
-46.140000000000029
42
0.41421356237311063
10
264.96000000000004
20
-46.640000000000057
10
279.46000000000004
20
-46.640000000000022
42
0.41421356237301177
10
279.96000000000004
20
-46.140000000000029
10
279.96000000000009
20
-34.339999999999989
42
0.41421356237302737
0
ARC
5
170
100
AcDbEntity
8
0
100
AcDbCircle
10
37.412319000000046
20
-46.140000000000001
30
1.3877787807814454e-16
40
0.49999999999999822
210
0
220
-2.7755575615629007e-16
230
1
100
AcDbArc
50
-90
51
0
0
LWPOLYLINE
5
171
100
AcDbEntity
8
0
100
AcDbPolyline
90
8
70
1
43
0.0
10
274.47000000000003
20
-15.289999999999981
10
274.47000000000003
20
-27.089999999999979
42
0.4142135623730534
10
274.97000000000003
20
-27.589999999999932
10
289.47000000000008
20
-27.590000000000003
42
0.41421356237310281
10
289.97000000000008
20
-27.089999999999979
10
289.97000000000008
20
-15.289999999999981
42
0.4142135623730781
10
289.47000000000008
20
-14.789999999999921
10
274.97000000000008
20
-14.789999999999992
42
0.41421356237313794
0
LWPOLYLINE
5
172
100
AcDbEntity
8
0
100
AcDbPolyline
90
8
70
1
43
0.0
10
245.91000000000008
20
-33.840000000000003
42
0.41421356237304041
10
245.41000000000014
20
-34.339999999999989
10
245.41000000000003
20
-46.140000000000029
42
0.41421356237314183
10
245.91000000000005
20
-46.640000000000043
10
260.41000000000008
20
-46.640000000000022
42
0.41421356237311585
10
260.91000000000008
20
-46.140000000000029
10
260.91000000000008
20
-34.339999999999989
42
0.41421356237311324
10
260.41000000000008
20
-33.839999999999989
0
LWPOLYLINE
5
173
100
AcDbEntity
8
0
100
AcDbPolyline
90
8
70
1
43
0.0
10
43.924999999999997
20
-63.165000000000013
42
0.41421356237313145
10
43.425000000000004
20
-63.66500000000002
10
43.424999999999983
20
-67.875000000000014
42
0.41421356237309503
10
43.925000000000018
20
-68.375000000000043
10
45.594999999999999
20
-68.375000000000028
42
0.41421356237310025
10
46.095000000000013
20
-67.875000000000014
10
46.095000000000013
20
-63.66500000000002
42
0.41421356237313145
10
45.594999999999999
20
-63.165000000000013
0
LWPOLYLINE
5
174
100
AcDbEntity
8
0
100
AcDbPolyline
90
8
70
1
43
0.0
10
280.3300000000001
20
4.2600000000000016
42
0.4142135623731103
10
279.82999999999998
20
3.7600000000000122
10
279.83000000000004
20
-8.0399999999999849
42
0.41421356237304302
10
280.33000000000004
20
-8.5399999999999388
10
294.8300000000001
20
-8.5400000000000098
42
0.41421356237310414
10
295.3300000000001
20
-8.0399999999999849
10
295.3300000000001
20
3.7600000000000122
42
0.41421356237308005
10
294.8300000000001
20
4.2600000000000646
0
ARC
5
175
100
AcDbEntity
8
0
100
AcDbCircle
10
133.78174939052147
20
-97.319267970490273
30
0
40
0.50000000000006639
210
0
220
0
230
1
100
AcDbArc
50
257.99999999998886
51
257.99999999998886
0
LWPOLYLINE
5
176
100
AcDbEntity
8
0
100
AcDbPolyline
90
8
70
1
43
0.0
10
303.54560000000009
20
-71.988000000000028
42
0.41421356237304818
10
303.04560000000009
20
-72.488000000000014
10
303.04560000000009
20
-84.288000000000025
42
0.41421356237300139
10
303.54560000000004
20
-84.787999999999982
10
318.04560000000009
20
-84.788000000000054
42
0.41421356237310542
10
318.54560000000009
20
-84.288000000000025
10
318.54560000000009
20
-72.488000000000014
42
0.41421356237318868
10
318.04560000000009
20
-71.988000000000042
0
LWPOLYLINE
5
177
100
AcDbEntity
8
0
100
AcDbPolyline
90
8
70
1
43
0.0
10
311.48874999999998
20
-65.189999999999998
42
0.41421356237300661
10
311.98874999999998
20
-65.689999999999998
10
326.4887500000001
20
-65.690000000000026
42
0.41421356237306384
10
326.98874999999998
20
-65.189999999999998
10
326.98874999999998
20
-53.390000000000001
42
0.41421356237298057
10
326.4887500000001
20
-52.890000000000015
10
311.98874999999998
20
-52.890000000000022
42
0.41421356237300661
10
311.4887500000001
20
-53.390000000000001
0
LWPOLYLINE
5
178
100
AcDbEntity
8
0
100
AcDbPolyline
90
8
70
1
43
0.0
10
48.610000000000028
20
-46.140000000000001
42
0.4142135623730846
10
49.110000000000021
20
-46.639999999999972
10
63.610000000000049
20
-46.640000000000022
42
0.41421356237309503
10
64.11000000000007
20
-46.140000000000001
10
64.110000000000042
20
-34.339999999999989
42
0.41421356237311585
10
63.610000000000007
20
-33.839999999999989
10
49.110000000000021
20
-33.840000000000003
42
0.41421356237309243
10
48.610000000000007
20
-34.339999999999989
0
ARC
5
179
100
AcDbEntity
8
0
100
AcDbCircle
10
37.412319000000046
20
-34.339999999999989
30
1.3877787807814454e-16
40
0.49999999999999822
210
0
220
0
230
1
100
AcDbArc
50
0
51
90
0
ARC
5
180
100
AcDbEntity
8
0
100
AcDbCircle
10
18.15000000000002
20
-46.139999999999972
30
0
40
0.49999999999999822
210
0
220
0
230
1
100
AcDbArc
50
180
51
269.9999999999996
0
LINE
5
181
100
AcDbEntity
8
0
100
AcDbLine
10
17.650000000000023
20
-46.140000000000001
30
0
11
17.650000000000006
21
-34.339999999999989
31
0
0
LWPOLYLINE
5
182
100
AcDbEntity
8
0
100
AcDbPolyline
90
8
70
1
43
0.0
10
259.10000000000002
20
-65.189999999999998
42
0.41421356237306384
10
259.60000000000002
20
-65.689999999999969
10
274.10000000000014
20
-65.690000000000026
42
0.41421356237316787
10
274.60000000000008
20
-65.189999999999998
10
274.60000000000008
20
-53.390000000000001
42
0.4142135623730534
10
274.10000000000002
20
-52.889999999999972
10
259.60000000000008
20
-52.890000000000022
42
0.41421356237311063
10
259.10000000000002
20
-53.390000000000001
0
LWPOLYLINE
5
183
100
AcDbEntity
8
0
100
AcDbPolyline
90
8
70
1
43
0.0
10
257.65000000000009
20
-5.8999999999999808
10
257.65000000000009
20
5.9000000000000163
42
0.41421356237307555
10
257.15000000000003
20
6.4000000000000608
10
242.65000000000009
20
6.4000000000000057
42
0.41421356237311063
10
242.15000000000003
20
5.9000000000000163
10
242.15000000000003
20
-5.8999999999999808
42
0.41421356237306317
10
242.65000000000003
20
-6.3999999999999337
10
257.15000000000009
20
-6.4000000000000057
42
0.41421356237310414
0
LWPOLYLINE
5
184
100
AcDbEntity
8
0
100
AcDbPolyline
90
8
70
1
43
0.0
10
240.05000000000001
20
-65.189999999999998
42
0.41421356237308982
10
240.55000000000007
20
-65.689999999999969
10
255.0500000000001
20
-65.690000000000026
42
0.41421356237316787
10
255.55000000000007
20
-65.189999999999998
10
255.55000000000007
20
-53.390000000000001
42
0.4142135623730534
10
255.05000000000001
20
-52.889999999999958
10
240.55000000000007
20
-52.890000000000022
42
0.41421356237312623
10
240.04999999999995
20
-53.390000000000001
0
LINE
5
185
100
AcDbEntity
8
0
100
AcDbLine
10
37.912319000000053
20
-46.140000000000001
30
1.3877787807814454e-16
11
37.912319000000046
21
-34.339999999999989
31
1.3877787807814454e-16
0
LINE
5
186
100
AcDbEntity
8
0
100
AcDbLine
10
22.912319000000053
20
-46.639999999999979
30
-1.3877787807814454e-16
11
37.412319000000046
21
-46.640000000000001
31
0
0
LINE
5
187
100
AcDbEntity
8
0
100
AcDbLine
10
37.412319000000046
20
-33.840000000000003
30
1.3877787807814454e-16
11
22.912319000000053
21
-33.840000000000003
31
-1.3877787807814454e-16
0
LWPOLYLINE
5
188
100
AcDbEntity
8
0
100
AcDbPolyline
90
8
70
1
43
0.0
10
288.3250000000001
20
-44.115000000000002
42
0.41421356237310542
10
287.82499999999999
20
-44.615000000000009
10
287.82499999999999
20
-48.825000000000003
42
0.4142135623730378
10
288.3250000000001
20
-49.325000000000017
10
289.995
20
-49.32500000000001
42
0.41421356237321988
10
290.495
20
-48.825000000000003
10
290.495
20
-44.615000000000009
42
0.41421356237313667
10
289.995
20
-44.115000000000002
0
LWPOLYLINE
5
189
100
AcDbEntity
8
0
100
AcDbPolyline
90
8
70
1
43
0.0
10
126.63516185496702
20
-93.734691886124892
10
125.0016553617416
20
-93.387479362459203
42
0.41421356237315832
10
124.40862571596581
20
-93.772597317417222
10
123.53331749762303
20
-97.89059871650656
42
0.4142135623731299
10
123.91843545258105
20
-98.483628362282317
10
125.55194194580653
20
-98.830840885947978
42
0.41421356237309503
10
126.14497159158232
20
-98.445722930989945
10
127.0202798099251
20
-94.327721531900636
42
0.41421356237308488
0
LWPOLYLINE
5
190
100
AcDbEntity
8
0
100
AcDbPolyline
90
8
70
1
43
0.0
10
119.28396492986211
20
-94.242386448166982
10
121.73732288151163
20
-82.700244759508109
42
0.4142135623730645
10
121.35220492655365
20
-82.107215113732295
10
107.16906471591342
20
-79.092495596874798
42
0.41421356237311324
10
106.57603507013762
20
-79.477613551832818
10
104.1226771184881
20
-91.019755240491719
42
0.4142135623730645
10
104.50779507344609
20
-91.612784886267491
10
118.69093528408632
20
-94.627504403125016
42
0.41421356237310525
0
LWPOLYLINE
5
191
100
AcDbEntity
8
0
100
AcDbPolyline
90
8
70
1
43
0.0
10
99.247029034420478
20
-87.913164543227566
10
97.613522541195039
20
-87.565952019561905
42
0.41421356237313794
10
97.020492895419238
20
-87.951069974519953
10
96.145184677076458
20
-92.069071373609276
42
0.41421356237310736
10
96.530302632034477
20
-92.662101019385048
10
98.163809125259974
20
-93.009313543050709
42
0.41421356237312773
10
98.756838771035703
20
-92.624195588092689
10
99.632146989378498
20
-88.506194189003367
42
0.41421356237315832
0
LWPOLYLINE
5
192
100
AcDbEntity
8
0
100
AcDbPolyline
90
8
70
1
43
0.0
10
137.48906471591357
20
-85.532495596874853
10
151.67220492655372
20
-88.547215113732364
42
-0.41421356237306239
10
152.05732288151179
20
-89.140244759508136
10
149.60396492986223
20
-100.68238644816708
42
-0.41421356237310525
10
149.01093528408643
20
-101.0675044031251
10
134.82779507344625
20
-98.052784886267602
42
-0.41421356237307466
10
134.44267711848821
20
-97.459755240491802
10
136.89603507013777
20
-85.917613551832872
42
-0.41421356237312773
0
ENDSEC
0
SECTION
2
OBJECTS
0
DICTIONARY
5
C
100
AcDbDictionary
3
ACAD_GROUP
350
D
3
ACAD_MLINESTYLE
350
17
0
DICTIONARY
5
D
100
AcDbDictionary
0
DICTIONARY
5
1A
330
C
100
AcDbDictionary
0
DICTIONARY
5
17
100
AcDbDictionary
0
ENDSEC
0
EOF
